# xmcd
#
# Track frame offsets:
#	150
#	17755
#	35097
#	56839
#
# Disc length: 1075 seconds
#
# Revision: 1
# Processed by: cddbd v1.5.2PL0 Copyright (c) Steve Scherf et al.
# Submitted via: audiograbber 1.83.01
#
DISCID=31043104
DTITLE=Bu Bu Man - Girl You Know It's True [CDM)
DYEAR=1997
DGENRE=Dance
TTITLE0=Girl You Know It's True (Radio Edit)
TTITLE1=Girl You Know It's True (Remix)
TTITLE2=Girl You Know It's True (Extended Remix)
TTITLE3=Girl You Know It's True (JS16 Club Mix)
EXTD=TR.
EXTT0=
EXTT1=
EXTT2=
EXTT3=
PLAYORDER=
